<svg width="68" height="21" viewBox="0 0 68 21" fill="none" xmlns="http://www.w3.org/2000/svg">
<path d="M33.7829 20.5931C39.3516 20.5931 43.866 16.0787 43.866 10.5099C43.866 4.94114 39.3516 0.426758 33.7829 0.426758C28.2141 0.426758 23.6997 4.94114 23.6997 10.5099C23.6997 16.0787 28.2141 20.5931 33.7829 20.5931Z" fill="#35C73B"/>
<path d="M65.1504 0H50.9423C49.4148 0 48.1765 1.23827 48.1765 2.76575C48.1765 4.29324 49.4148 5.53151 50.9423 5.53151H65.1504C66.6778 5.53151 67.9161 4.29324 67.9161 2.76575C67.9161 1.23827 66.6778 0 65.1504 0Z" fill="#35C73B"/>
<path d="M62.0369 7.7442H50.9423C49.4148 7.7442 48.1765 8.98247 48.1765 10.51C48.1765 12.0374 49.4148 13.2757 50.9423 13.2757H62.0369C63.5644 13.2757 64.8027 12.0374 64.8027 10.51C64.8027 8.98247 63.5644 7.7442 62.0369 7.7442Z" fill="#35C73B"/>
<path d="M65.1504 14.9983H50.9423C49.4148 14.9983 48.1765 16.2366 48.1765 17.764C48.1765 19.2915 49.4148 20.5298 50.9423 20.5298H65.1504C66.6778 20.5298 67.9161 19.2915 67.9161 17.764C67.9161 16.2366 66.6778 14.9983 65.1504 14.9983Z" fill="#35C73B"/>
<path d="M7.43711 2.01902L0.419989 15.5633C-0.86016 18.0446 0.941531 21 3.72309 21H17.6467C20.4283 21 22.2299 18.0604 20.9656 15.5791L14.0591 2.03482C12.6841 -0.667715 8.82788 -0.683519 7.43711 2.01902Z" fill="#35C73B"/>
</svg>
