<svg width="64" height="128" viewBox="0 0 24 24" fill="none" xmlns="http://www.w3.org/2000/svg">
<g clip-path="url(#clip0_6743_2324)" transform="translate(-1.7,0)">
<path d="M6.04688 20.3585C6.04688 20.3585 8.49193 20.0866 8.62783 20.0414C8.76374 19.9961 11.2994 20.1319 11.2994 20.1319L12.9291 20.5397L14.4229 21.0833L14.8305 21.2192L17.0491 20.4037L19.7206 19.9961L21.5316 20.0414L22.9347 20.2225L23.5236 20.4037L23.4783 22.8489L22.2551 22.5318L19.9006 22.3505L18.271 22.4864L16.8678 22.8035L15.6006 23.2113L14.6946 23.5737L12.7932 22.8489L10.484 22.3959H7.81241L6.04688 22.713V20.3585Z" fill="white" fill-opacity="0.5"/>
<path d="M14.6815 23.9973C10.5653 21.7309 6.19358 23.0899 6.14953 23.1038L5.65625 23.2611V20.1403L5.91799 20.0559C6.108 19.9943 10.6357 18.5785 15.0452 21.006L14.6815 21.6679C11.1428 19.72 7.41672 20.4511 6.41128 20.7028V22.2506C7.72504 21.9385 11.4248 21.3408 15.0452 23.334L14.6815 23.996V23.9973Z" fill="white"/>
<path d="M14.6293 24.0038L14.2656 23.3418C17.8861 21.3484 21.5857 21.9463 22.8995 22.2584V20.7105C21.8954 20.4576 18.168 19.7277 14.6293 21.6757L14.2656 21.0138C18.6751 18.5864 23.2028 20.0021 23.3929 20.0637L23.6546 20.1479V23.2701L23.1612 23.1103C23.1185 23.0965 18.7468 21.7374 14.6293 24.0038Z" fill="white"/>
<path d="M19.3733 16.888C19.3744 16.615 19.2788 16.3809 19.0849 16.1771C18.8938 15.9833 18.6623 15.8914 18.3954 15.8989C18.1223 15.9178 17.8895 16.0273 17.6933 16.2185C17.5019 16.4501 17.4088 16.6917 17.4102 16.966C17.4088 17.2291 17.5019 17.4632 17.6895 17.6557C17.8807 17.8596 18.1148 17.9527 18.3917 17.9337C18.6609 17.9351 18.8925 17.8256 19.0826 17.6141C19.2763 17.4027 19.3719 17.1598 19.3744 16.8869L19.3733 16.888Z" fill="white" fill-opacity="0.5"/>
<path d="M11.7542 17.6131C11.948 17.4017 12.0436 17.1702 12.0424 16.8959C12.0436 16.6228 11.948 16.3685 11.7567 16.1546C11.5516 15.981 11.3226 15.8991 11.0659 15.9067C10.784 15.9357 10.5511 16.035 10.3636 16.2062C10.1724 16.4176 10.0767 16.6693 10.0742 16.9537C10.0742 17.2268 10.1711 17.4608 10.3624 17.6546C10.5474 17.8585 10.7802 17.9504 11.0558 17.9328C11.3402 17.924 11.5705 17.8245 11.7529 17.6131H11.7542Z" fill="white" fill-opacity="0.5"/>
<path d="M14.6221 20.3459C13.8657 20.3459 13.1233 20.283 12.5545 20.1369C11.0242 19.7444 9.80614 19.0359 8.83088 17.9699C7.81788 16.8613 7.75371 15.7929 7.68571 14.6616C7.67695 14.517 7.66811 14.3698 7.65675 14.22C7.5662 12.9679 6.97472 11.0111 6.96843 10.9922L6.92188 10.8386L7.01625 10.7091C7.88709 9.52358 8.96053 8.67668 10.3007 8.11797C11.5314 7.60454 12.9962 7.3365 14.7793 7.2975C17.748 7.12383 20.9845 8.3583 22.477 10.2346L22.5715 10.3529L21.8957 13.5052C21.888 13.675 21.8378 14.5623 21.5936 16.3757C21.3067 18.4999 18.683 19.7154 17.3351 20.0602C16.6505 20.2364 15.6224 20.3459 14.6208 20.3459H14.6221ZM7.62908 10.9607C7.77504 11.4628 8.21554 13.0471 8.29732 14.1722C8.3086 14.3244 8.31744 14.4754 8.32629 14.6227C8.39168 15.7251 8.4445 16.5959 9.30407 17.5371C10.1924 18.5087 11.3074 19.1567 12.713 19.5166C13.9047 19.8223 16.0529 19.728 17.1766 19.4387C18.1442 19.1907 20.7102 18.14 20.9593 16.2875C21.2224 14.3383 21.2564 13.4586 21.2576 13.4498V13.4221L21.8818 10.5152C20.9002 8.6301 20.3175 8.24381 19.0693 7.77314C17.7529 7.2761 16.1485 7.85501 14.8107 7.93428H14.7995C11.3892 8.00852 8.88881 6.91493 7.62786 10.9595L7.62908 10.9607Z" fill="white"/>
<path d="M21.3238 10.7591C21.5667 11.3845 21.6699 11.6978 21.8977 12.2703C21.8977 12.2703 22.5004 11.3027 22.6905 10.6106C22.8818 9.91093 22.7647 9.01997 22.6149 8.18686C22.2387 6.7888 21.9468 6.68057 20.818 5.85255C20.3171 5.50899 19.7509 5.20446 19.1102 4.93643C17.7248 4.41418 16.3329 4.12476 14.9324 4.06435C13.5444 4.04044 12.1438 4.24807 10.7406 4.68474C10.0888 4.91125 9.50744 5.18307 8.99271 5.49767C7.81988 6.25649 7.00319 7.32487 6.54891 8.69656C6.42684 9.21251 6.23306 9.70826 6.28087 10.1865C6.49983 12.3799 7.93063 13.3425 7.83246 12.814C7.7054 12.1319 7.78718 11.7293 7.96211 11.0774C8.29437 9.84416 9.08083 8.93316 10.3229 8.35303H10.3266C10.5682 8.28504 11.7927 7.58913 13.4186 8.42094C13.8502 8.60593 14.6052 9.10679 14.9827 9.09543C15.3615 9.08415 15.9064 8.7192 16.3028 8.47124C17.0478 8.00438 17.7537 7.84463 18.6862 8.14029C20.0415 8.56691 20.8733 9.53089 21.3238 10.7604V10.7591Z" fill="white"/>
<path d="M1.3287 9.66334L2.348 9.96281L3.51706 9.90244L4.35641 9.33238L5.25617 8.5232L5.91558 7.62348L6.75493 6.75391L7.56406 6.24426L8.67272 6.00391L7.92277 7.32271L7.29352 7.95192L5.97473 9.78042L5.37573 10.6801L4.68611 11.1596L3.69701 11.819C3.69701 11.819 2.82746 11.9989 2.7381 12.0292C2.64876 12.0593 1.92895 12.1789 1.92895 12.1789L1.29975 12.1486L0.820312 11.9989L1.26955 11.0992L1.32996 10.4398V9.66082L1.3287 9.66334Z" fill="white" fill-opacity="0.5"/>
<path d="M3.92999 4.48438L3.83939 5.17271L3.60029 5.65343L3.30079 6.10268L2.55078 6.55193L3.45055 7.00118L4.43965 7.39126L5.45895 7.6014L5.9082 7.63167L6.98791 6.88163L8.12675 5.86232L7.73664 5.74278L6.32852 5.59303L5.279 5.20291L4.529 4.81407L3.92999 4.48438Z" fill="white" fill-opacity="0.5"/>
<path d="M1.65984 12.4399C1.34271 12.4399 1.00923 12.4211 0.659403 12.3846L0 12.3091L0.324665 12.1001L0.498322 11.9127C0.522233 11.8762 0.591451 11.7554 0.705967 11.5012V11.4987C0.890959 11.101 0.955138 10.4354 0.898505 9.52046L0.859486 8.90512L1.3339 9.29774C1.82972 9.70797 2.45137 9.80614 3.23284 9.5947C3.93125 9.39591 4.69132 8.74406 5.48916 7.65926C6.2228 6.6035 7.2786 5.88746 8.63012 5.53007L8.75726 5.49609L9.61171 6.1618L8.84408 6.10643C8.77235 6.17564 8.70063 6.24988 8.63515 6.33167L8.62006 6.35055L8.59994 6.36817C8.15953 7.15089 7.52901 7.92353 6.89857 8.76921L6.88975 8.78431C6.79287 8.95421 6.69344 9.13035 6.58522 9.30529V9.31413L6.54999 9.37076C5.90443 10.4203 5.19469 11.2067 4.43965 11.7101C3.74627 12.1959 2.81379 12.4412 1.65984 12.4412V12.4399ZM1.11368 11.8888C2.41613 11.9731 3.43167 11.7667 4.13637 11.2709L4.1414 11.2672C4.82471 10.8129 5.47531 10.0918 6.07558 9.12532C6.0869 9.09263 6.10326 9.06496 6.12088 9.04354C6.22785 8.87112 6.32851 8.69368 6.42667 8.52134V8.51875C6.85326 7.70081 7.34402 6.97346 7.89145 6.35055C7.07475 6.71045 6.42792 7.24527 5.92708 7.96637L5.9233 7.97261C5.04117 9.17441 4.20811 9.87284 3.37756 10.1094C2.64391 10.307 1.9996 10.2717 1.45346 10.0049C1.46478 10.7575 1.37922 11.3225 1.19422 11.7215C1.16654 11.7843 1.14011 11.8397 1.1162 11.8888H1.11368Z" fill="white"/>
<path d="M1.72309 12.4366C1.40597 12.4366 1.07249 12.4178 0.722656 12.3813L0.778024 11.8515C2.27301 12.0087 3.4232 11.8124 4.19837 11.2675L4.20466 11.2638C4.88798 10.8095 5.53857 10.0884 6.13882 9.12194C6.16022 9.06279 6.1942 9.02254 6.2244 8.99609L6.57298 9.39886C6.62583 9.35228 6.64848 9.28932 6.65225 9.24526L6.64722 9.30944L6.61325 9.36608C5.96768 10.4156 5.25794 11.2021 4.50291 11.7055C3.80953 12.1913 2.87705 12.4366 1.72309 12.4366Z" fill="white"/>
<path d="M6.27565 7.33025C6.1624 7.3378 6.04914 7.3441 5.93589 7.34787C5.03864 7.37933 4.081 7.1289 3.08308 6.60415C3.94761 6.04541 4.18797 5.40866 4.15399 4.83483C4.36037 4.99842 4.57556 5.14188 4.79956 5.26394C6.26686 6.09072 7.81723 6.2216 10.4674 5.48038L10.2874 4.97829C7.76935 5.67292 6.40528 5.55841 5.05752 4.79834C4.67497 4.5907 4.3201 4.31134 4.00298 3.97031L3.96649 3.9313L3.42034 3.33984L3.52353 4.09992C3.53863 4.16285 3.85198 5.6465 2.42117 6.37008L1.98828 6.58905L2.40606 6.83696C3.57638 7.53287 4.71147 7.88516 5.78111 7.88516L6.27565 7.33151V7.33025Z" fill="white"/>
<path d="M13.0152 15.5023C12.8491 15.5023 12.693 15.3992 12.6163 15.2255C12.2603 14.4126 11.9808 14.0741 11.5592 13.5618C11.1326 13.0448 10.2241 12.1688 10.0744 12.0417C9.87428 11.8718 9.81764 11.6403 9.93716 11.4805C9.9976 11.4012 10.1763 11.2414 10.5437 11.4855C11.2887 11.9788 12.9423 13.4625 13.389 14.6542C13.5526 15.087 13.389 15.3815 13.1701 15.471C13.1184 15.4922 13.0668 15.5011 13.0139 15.5011L13.0152 15.5023Z" fill="white"/>
<path d="M16.2324 15.5277C16.1794 15.5277 16.1254 15.5177 16.0724 15.495C15.8535 15.4032 15.695 15.1062 15.8637 14.6758C16.3254 13.4903 17.9978 12.028 18.7491 11.5436C19.1203 11.3045 19.2965 11.4656 19.3557 11.5462C19.4739 11.7072 19.4149 11.9375 19.2122 12.1049C19.0613 12.2307 18.1413 13.0927 17.7085 13.6062C17.2806 14.1133 16.9975 14.448 16.63 15.2571C16.552 15.4283 16.3972 15.529 16.2336 15.529L16.2324 15.5277Z" fill="white"/>
<path d="M17.8704 2.5324C17.8817 1.91454 17.581 1.38223 16.9682 0.93676C16.3452 0.500083 15.6016 0.279861 14.737 0.273573C13.8725 0.267277 13.1313 0.479953 12.521 0.914107C11.9068 1.35203 11.5935 1.87804 11.5859 2.49089C11.5885 2.68217 11.6048 2.85707 11.6288 3.02068C13.9203 2.28325 15.9728 2.34365 17.7824 3.20314C17.8314 2.97411 17.8616 2.75138 17.8704 2.53115V2.5324Z" fill="white" fill-opacity="0.5"/>
<path d="M8.29249 14.959L8.28113 14.9325C8.25095 14.8633 8.2245 14.7928 8.20316 14.7237L8.13898 14.5172L7.71488 14.5311L7.68218 14.8873C7.6847 14.901 7.69224 14.935 7.69979 14.9954V15.0081C7.70352 15.0294 7.70482 15.047 7.70855 15.0647C7.71488 15.2535 7.65825 15.4032 7.52989 15.5353C7.40778 15.665 7.24799 15.7228 7.03784 15.7141C6.77735 15.7039 6.69052 15.5995 6.64773 15.5215C6.53321 15.315 6.52567 15.2044 6.53196 15.1553C6.54832 15.0207 6.57601 14.8785 6.61501 14.735C6.67541 14.511 6.63012 14.2504 6.47785 13.9622L6.32181 13.6667C6.26266 13.5546 6.21107 13.4137 6.16828 13.2475C6.13557 13.1078 6.14438 12.9405 6.19345 12.7479C6.23749 12.5781 6.33188 12.4447 6.48163 12.3389C6.63137 12.2383 6.81007 12.2018 7.02274 12.2295L7.0391 12.232H7.05546C7.26435 12.2333 7.43553 12.2534 7.5664 12.2886C7.52989 12.0847 7.51853 11.8721 7.53744 11.6557C7.40023 11.5978 7.26184 11.5575 7.12216 11.5386H7.1146L7.01142 11.5299C6.70059 11.5009 6.39731 11.5701 6.11039 11.7362C5.81341 11.9099 5.61333 12.1665 5.51643 12.5C5.43337 12.7907 5.4233 13.0902 5.48498 13.3885C5.49253 13.4338 5.50258 13.4866 5.52021 13.537C5.56676 13.6843 5.64353 13.8478 5.74923 14.024C5.91031 14.2895 5.95939 14.3763 5.97323 14.4053L5.97826 14.4154C5.9984 14.4518 6.00217 14.5072 5.98833 14.5802L5.98329 14.604C5.96819 14.6859 5.9531 14.7626 5.94681 14.7915C5.82097 15.1176 5.80838 15.4182 5.90779 15.6814C6.00846 15.9607 6.18591 16.1645 6.43759 16.2904C6.58355 16.3621 6.75219 16.4074 6.93969 16.4262C7.04162 16.4364 7.14858 16.4376 7.26057 16.4313C7.62425 16.4125 7.91999 16.2401 8.11505 15.9367C8.30629 15.6486 8.36795 15.3289 8.30126 14.988L8.29623 14.959H8.29249Z" fill="white"/>
<path d="M23.9164 12.0674C23.8183 11.7378 23.6144 11.4824 23.3098 11.3074H23.3086C23.0356 11.1514 22.7437 11.0872 22.4391 11.1161C22.4278 11.1161 22.4164 11.1186 22.4051 11.1199L22.3045 11.1325H22.2956C22.1019 11.164 21.908 11.2369 21.7193 11.3465C21.7205 11.3615 21.7231 11.3779 21.7256 11.393C21.7432 11.5856 21.7344 11.7756 21.7017 11.9605L21.8112 11.9165C21.9508 11.8599 22.1408 11.8133 22.3913 11.7756L22.4051 11.773C22.5965 11.734 22.7613 11.7693 22.9223 11.8863C23.0922 12.0096 23.2068 12.1632 23.2721 12.3532C23.3262 12.5319 23.3339 12.6854 23.2961 12.8213C23.2496 12.9911 23.1967 13.1422 23.1388 13.2693C23.0696 13.4153 22.999 13.5574 22.9298 13.6871C22.8255 13.8808 22.7877 14.091 22.8191 14.3099C22.8456 14.5013 22.8733 14.6598 22.9047 14.7957C22.9274 14.8901 22.9136 15.0109 22.8645 15.1544L22.862 15.1607C22.8217 15.289 22.6053 15.3583 22.4794 15.3884C22.1924 15.4564 22.0642 15.3518 21.9873 15.2576C21.8564 15.0889 21.7948 14.9065 21.7985 14.7013L21.8036 14.6422C21.8099 14.583 21.8161 14.5529 21.8186 14.5415L21.8099 14.1741L21.3393 14.1853L21.2889 14.3867C21.2713 14.4559 21.2486 14.5239 21.2197 14.5918L21.2072 14.6207L21.2021 14.6522C21.1467 14.9871 21.2159 15.3054 21.406 15.5999L21.411 15.6061C21.6186 15.9057 21.9156 16.0705 22.2693 16.083C22.3636 16.0881 22.4556 16.0856 22.5424 16.0781C22.7511 16.0591 22.9374 16.0038 23.0973 15.9144C23.3326 15.7849 23.4999 15.5772 23.5981 15.2965C23.6913 15.0209 23.6723 14.7214 23.5427 14.4056L23.5112 14.2193L23.5088 14.2055C23.4936 14.1389 23.5 14.0734 23.5251 14.0079C23.5742 13.891 23.6408 13.7551 23.7227 13.6003C23.8296 13.4115 23.8988 13.2517 23.9366 13.1158C23.9555 13.0554 23.968 13.0025 23.9718 12.9496C24.021 12.6539 24.002 12.3581 23.9139 12.0699L23.9164 12.0674Z" fill="white"/>
<path d="M18.0938 3.11227C18.1303 2.91093 18.1516 2.7209 18.1592 2.53089C18.1717 1.82367 17.8308 1.21207 17.1437 0.71249C16.4804 0.246887 15.6789 0.00778704 14.7615 0.000239706C13.8416 -0.00856931 13.0437 0.225483 12.3882 0.691103C11.7023 1.18062 11.3499 1.7834 11.3412 2.48306V2.48936C11.3424 2.62904 11.3512 2.76872 11.3688 2.9147C11.3047 2.99146 11.2694 3.07578 11.2656 3.16638V3.17645C11.2656 3.41303 11.2996 3.64961 11.3713 3.87864L11.3726 3.88494C11.4707 4.17436 11.6394 4.44996 11.8747 4.70415L11.9426 4.77715L12.5618 4.84635C13.0904 5.1534 13.7964 5.31825 14.6645 5.33336C14.7024 5.33336 14.7401 5.33336 14.7766 5.33336C15.4171 5.33336 15.9771 5.25534 16.4427 5.1018L16.4554 5.09677C16.6301 5.02882 16.8 4.94702 16.9625 4.85265C17.4557 4.89921 17.8258 4.65634 18.0157 4.16177L18.0623 4.11145L18.0598 4.04098C18.1327 3.81698 18.2611 3.3778 18.0924 3.11227H18.0938ZM12.6965 1.12524C13.2578 0.726332 13.9498 0.527515 14.7564 0.533803C15.5631 0.540099 16.2628 0.747728 16.8328 1.14664C17.3751 1.54052 17.6344 1.99103 17.6256 2.51579C17.6219 2.61268 17.6143 2.7121 17.6004 2.81529C16.6843 2.43148 15.7065 2.24019 14.6709 2.24019C13.7813 2.24019 12.85 2.38239 11.881 2.66554C11.8772 2.60513 11.8747 2.54473 11.8735 2.48559C11.881 1.95957 12.1503 1.51409 12.6965 1.12524ZM17.6205 3.62695L17.4406 4.0158C17.4406 4.0158 17.2053 4.35558 16.9486 4.31279L16.8491 4.29642L16.7636 4.34928C16.6077 4.44618 16.4415 4.52923 16.2691 4.59593C15.8349 4.73813 15.2976 4.80608 14.6734 4.79728C13.9007 4.78217 13.2816 4.64375 12.8324 4.38326C12.8185 4.37444 12.8046 4.36565 12.7921 4.35935L12.7393 4.32663L12.2031 4.26749C12.1013 4.14793 11.9565 3.89625 11.9565 3.89625L11.8092 3.46966C11.8092 3.46966 11.8017 3.28844 11.8005 3.24692C13.9699 2.56361 15.9356 2.62024 17.6432 3.41555C17.6457 3.447 17.6205 3.62695 17.6205 3.62695ZM17.7804 4.02335V4.01957L17.7842 4.02335H17.7804Z" fill="white"/>
</g>
<defs>
<clipPath id="clip0_6743_2324">
<rect width="64" height="128" fill="white"/>
</clipPath>
</defs>
</svg>
