<svg width="105" height="90" viewBox="0 0 105 90" fill="none" xmlns="http://www.w3.org/2000/svg">
<path d="M90.6996 20.9C88.8996 14.5 83.0996 9.8 76.0996 9.8C73.3996 9.8 70.8996 10.5 68.6996 11.7C64.1996 4.7 56.2996 0 47.2996 0C34.3996 0 23.6996 9.7 22.0996 22.2C9.89961 24.2 0.599609 34.7 0.599609 47.5C0.599609 61.6 11.9996 73 26.0996 73C33.0996 73 39.4996 70.1 44.0996 65.5C45.2996 64.3 46.3996 63 47.2996 61.5C46.3996 62.9 45.3996 64.1 44.1996 65.3C39.2996 72.1 36.4996 80.5 36.4996 89.5C36.4996 89.6 36.4996 89.7 36.4996 89.8C47.2996 82.5 60.2996 78 74.1996 77.6C74.2996 77.6 74.2996 77.6 74.3996 77.6C87.5996 77.6 98.8996 69.2 103.2 57.4C104.4 54.1 105 50.6 105 46.9C105 36 99.2996 26.4 90.6996 20.9ZM30.8996 48.8C30.8996 50.8 29.2996 52.5 27.1996 52.5C25.1996 52.5 23.6996 50.8 23.6996 48.8V39C23.6996 37 25.1996 35.3 27.1996 35.3C29.1996 35.3 30.8996 37 30.8996 39V48.8ZM43.9996 53.6C43.9996 55.7 42.2996 57.4 40.1996 57.4C38.0996 57.4 36.3996 55.7 36.3996 53.6V31.6C36.3996 29.5 38.0996 27.8 40.1996 27.8C42.2996 27.8 43.9996 29.5 43.9996 31.6V53.6ZM57.4996 48.9C57.4996 50.9 55.6996 52.6 53.6996 52.6C51.6996 52.6 49.9996 50.9 49.9996 48.9V38.9C49.9996 36.9 51.5996 35.2 53.6996 35.2C55.6996 35.2 57.4996 36.9 57.4996 38.9V48.9ZM71.1996 53.7C71.1996 55.8 69.4996 57.5 67.3996 57.5C65.2996 57.5 63.5996 55.8 63.5996 53.7V31.7C63.5996 29.6 65.2996 27.9 67.3996 27.9C69.4996 27.9 71.1996 29.6 71.1996 31.7V53.7ZM84.5996 48.8C84.5996 50.8 82.9996 52.5 80.8996 52.5C78.8996 52.5 77.3996 50.8 77.3996 48.8V39C77.3996 37 78.8996 35.3 80.8996 35.3C82.8996 35.3 84.5996 37 84.5996 39V48.8Z" fill="#2A80E2"/>
</svg>
